<?xml version="1.0" encoding="utf-8"?>
<!-- Generator: Adobe Illustrator 26.0.3, SVG Export Plug-In . SVG Version: 6.00 Build 0)  -->
<svg version="1.1" id="Layer_2" xmlns="http://www.w3.org/2000/svg" xmlns:xlink="http://www.w3.org/1999/xlink" x="0px" y="0px"
	 viewBox="0 0 53.3 52.5" style="enable-background:new 0 0 53.3 52.5;" xml:space="preserve">
<style type="text/css">
	.st{fill:#FFFFFF!important;}
</style>
<path class="st" d="M26.6,3C13.7,3,3.3,13.4,3.3,26.3s10.4,23.3,23.3,23.3s23.3-10.4,23.3-23.3S39.4,3,26.6,3z M26.6,44.5
	c-10.1,0-18.3-8.2-18.3-18.3C8.3,16.2,16.5,8,26.6,8c9.4,0,17.2,7.2,18.2,16.4h-8.4c-0.9-4.6-4.9-8.1-9.8-8.1c-5.5,0-10,4.5-10,10
	s4.5,10,10,10c4.8,0,8.9-3.4,9.8-8h8.4C43.8,37.4,36,44.5,26.6,44.5z"/>
</svg>
