<svg width="213" height="213" viewBox="0 0 213 213" fill="none" xmlns="http://www.w3.org/2000/svg">
<g clip-path="url(#clip0_630_38211)">
<path d="M198.584 53.0218C185.772 30.9556 165.465 14.2232 141.357 5.8693C117.249 -2.4845 90.9421 -1.9043 67.2255 7.50427C43.509 16.9128 23.9583 34.5244 12.1317 57.1339C0.304929 79.7435 -3.01175 105.848 2.7852 130.697C8.58216 155.546 23.1074 177.488 43.7175 192.529C64.3278 207.57 89.6526 214.711 115.084 212.653C140.515 210.594 164.362 199.473 182.285 181.312C200.208 163.151 211.016 139.159 212.74 113.701C212.896 111.311 213 108.921 213 106.48C213 103.596 213 100.713 212.636 97.8815C211.38 82.0629 206.577 66.7302 198.584 53.0218ZM197.234 117.493C194.442 140.422 183.029 161.428 165.312 176.247C147.594 191.065 124.901 198.583 101.842 197.274C78.7827 195.965 57.0859 185.928 41.1586 169.2C25.2312 152.473 16.2673 130.31 16.0877 107.213C15.9081 84.115 24.5261 61.8151 40.1914 44.842C55.8567 27.8688 77.3947 17.4952 100.431 15.828C123.467 14.1608 146.274 21.3249 164.22 35.8654C182.166 50.4059 193.905 71.2324 197.053 94.1149C197.116 94.5889 197.076 95.0699 196.938 95.527C196.8 95.984 196.565 96.4065 196.25 96.7659C195.935 97.1245 195.547 97.4129 195.112 97.6099C194.678 97.8061 194.205 97.9081 193.728 97.9072H154.819C154.065 97.9037 153.333 97.6445 152.744 97.1733C152.155 96.702 151.742 96.0453 151.573 95.3104C148.83 84.3932 142.173 74.8644 132.865 68.5356C123.558 62.2067 112.249 59.5189 101.09 60.9831C89.9295 62.4473 79.6973 67.9616 72.3373 76.4775C64.9772 84.9933 61.0027 95.9175 61.1694 107.172C61.3361 118.427 65.6324 129.228 73.2415 137.522C80.8506 145.816 91.2421 151.025 102.44 152.157C113.638 153.291 124.862 150.269 133.978 143.668C143.094 137.066 149.467 127.344 151.884 116.35C152.05 115.608 152.466 114.945 153.062 114.473C153.657 114 154.397 113.746 155.157 113.753H193.987C194.453 113.764 194.912 113.872 195.333 114.071C195.755 114.269 196.131 114.554 196.437 114.906C196.742 115.258 196.971 115.67 197.108 116.115C197.245 116.561 197.289 117.03 197.234 117.493Z" fill="white"/>
</g>
<defs>
<clipPath id="clip0_630_38211">
<rect width="213" height="213" fill="white"/>
</clipPath>
</defs>
</svg>
