<?xml version="1.0" encoding="UTF-8" standalone="no"?>
<svg
   width="989"
   height="800"
   viewBox="0 0 989 800"
   fill="none"
   version="1.1"
   id="svg185"
   xmlns="http://www.w3.org/2000/svg"
   xmlnssvg="http://www.w3.org/2000/svg">
  <defs
     id="defs189" />
  <path
     fill-rule="evenodd"
     clip-rule="evenodd"
     d="M 989,347.0099 C 989,155.36112 859.163,0 699,0 538.837,0 409,155.36112 409,347.0099 v 479.83092 h 580 z"
     fill="#49bca1"
     id="path161"
     style="stroke-width:1.09389" />
  <path
     d="m 890,272.05521 c 0,46.4724 -36.489,34.07143 -81.5,34.07143 -45.011,0 -81.5,12.40097 -81.5,-34.07143 0,-46.4724 36.489,-84.14611 81.5,-84.14611 45.011,0 81.5,37.67371 81.5,84.14611 z"
     fill="#ffffff"
     id="path163"
     style="stroke-width:1.0161" />
  <path
     d="m 664,272.05521 c 0,46.4724 -36.489,31.49026 -81.5,31.49026 -45.011,0 -81.5,14.98214 -81.5,-31.49026 0,-46.4724 36.489,-84.14611 81.5,-84.14611 45.011,0 81.5,37.67371 81.5,84.14611 z"
     fill="#ffffff"
     id="path165"
     style="stroke-width:1.0161" />
  <ellipse
     cx="808"
     cy="271.53897"
     fill="#00192c"
     id="circle167"
     rx="10"
     ry="10.324676"
     style="stroke-width:1.0161" />
  <ellipse
     cx="582"
     cy="271.53897"
     fill="#00192c"
     id="circle169"
     rx="10"
     ry="10.324676"
     style="stroke-width:1.0161" />
  <path
     d="m 775,412.98703 c 0,19.9576 -37.474,67.62663 -80,67.62663 -42.526,0 -85.5,-47.66903 -85.5,-67.62663 0,-19.95759 42.974,-9.80844 85.5,-9.80844 42.526,0 80,-19.10065 80,9.80844 z"
     fill="#00192c"
     id="path171"
     style="stroke-width:1.0161" />
  <path
     fill-rule="evenodd"
     clip-rule="evenodd"
     d="m 580,411.95457 c 0,-165.36311 -129.837,-299.4156 -290,-299.4156 -160.163,0 -290,134.05249 -290,299.4156 v 414.0195 h 580 z"
     fill="#ff5f63"
     id="path173"
     style="stroke-width:1.0161" />
  <path
     d="m 481,384.59418 c 0,46.47239 -36.489,34.58766 -81.5,34.58766 -45.011,0 -81.5,11.88473 -81.5,-34.58766 0,-46.4724 36.489,-84.14611 81.5,-84.14611 45.011,0 81.5,37.67371 81.5,84.14611 z"
     fill="#ffffff"
     id="path175"
     style="stroke-width:1.0161" />
  <path
     d="m 255,384.59418 c 0,46.47239 -36.489,27.87662 -81.5,27.87662 -45.011,0 -81.5,18.59577 -81.5,-27.87662 0,-46.4724 36.489,-84.14611 81.5,-84.14611 45.011,0 81.5,37.67371 81.5,84.14611 z"
     fill="#ffffff"
     id="path177"
     style="stroke-width:1.0161" />
  <ellipse
     cx="399"
     cy="384.07794"
     fill="#00192c"
     id="circle179"
     rx="10"
     ry="10.324676"
     style="stroke-width:1.0161" />
  <ellipse
     cx="173"
     cy="384.07794"
     fill="#00192c"
     id="circle181"
     rx="10"
     ry="10.324676"
     style="stroke-width:1.0161" />
  <path
     d="m 373.5,510.03899 c 0,24.51904 -31.5,67.11039 -84,67.11039 -52.5,0 -84.5,-42.59135 -84.5,-67.11039 0,-24.51904 53.848,-10.84091 84.5,-10.84091 30.652,0 84,-13.67813 84,10.84091 z"
     fill="#00192c"
     id="path183"
     style="stroke-width:1.0161" />
</svg>
