<?xml version="1.0" encoding="UTF-8" standalone="no"?>
<svg
   width="989"
   height="800"
   viewBox="0 0 989 800"
   fill="none"
   version="1.1"
   id="svg26"
   xmlns="http://www.w3.org/2000/svg"
   xmlnssvg="http://www.w3.org/2000/svg">
  <defs
     id="defs30" />
  <path
     fill-rule="evenodd"
     clip-rule="evenodd"
     d="M 989,335.92631 C 989,150.39884 859.163,0 699,0 538.837,0 409,150.39884 409,335.92631 V 800.4313 h 580 z"
     fill="#49bca1"
     id="path2"
     style="stroke-width:1.07627" />
  <path
     d="M890.782 285.062C879.132 328.54 834.443 354.341 790.965 342.692C747.488 331.042 721.687 286.352 733.336 242.875C744.986 199.397 779.66 199.382 823.138 211.032C866.615 222.682 902.432 241.585 890.782 285.062Z"
     fill="white"
     id="path4" />
  <path
     d="M657.727 242.867C669.377 286.344 643.576 331.034 600.098 342.683C556.621 354.333 511.931 328.532 500.281 285.054C488.632 241.577 521.421 222.967 564.899 211.317C608.376 199.668 646.078 199.389 657.727 242.867Z"
     fill="white"
     id="path6" />
  <circle
     cx="808"
     cy="263"
     r="10"
     fill="#00192C"
     id="circle8" />
  <circle
     cx="582"
     cy="263"
     r="10"
     fill="#00192C"
     id="circle10" />
  <path
     d="M772 417C772 436.33 737.526 417 695 417C652.474 417 618 436.33 618 417C618 397.67 652.474 382 695 382C737.526 382 772 397.67 772 417Z"
     fill="#00192C"
     id="path12" />
  <path
     fill-rule="evenodd"
     clip-rule="evenodd"
     d="M580 399C580 238.837 450.163 109 290 109C129.837 109 0 238.837 0 399V800H580V399Z"
     fill="#FF5F63"
     id="path14" />
  <path
     d="M477.955 415.36C455.45 454.341 405.605 467.697 366.624 445.191C327.643 422.685 314.287 372.841 336.793 333.86C359.299 294.879 393.393 308.803 432.374 331.309C471.355 353.814 500.461 376.379 477.955 415.36Z"
     fill="white"
     id="path16" />
  <path
     d="M236.33 333.827C258.836 372.808 245.48 422.653 206.499 445.158C167.518 467.664 117.674 454.308 95.168 415.327C72.6624 376.346 101.518 353.348 140.499 330.843C179.48 308.337 213.825 294.846 236.33 333.827Z"
     fill="white"
     id="path18" />
  <circle
     cx="399"
     cy="372"
     r="10"
     fill="#00192C"
     id="circle20" />
  <circle
     cx="173"
     cy="372"
     r="10"
     fill="#00192C"
     id="circle22" />
  <path
     d="M345 516C345 539.748 320.152 516 289.5 516C258.848 516 234 539.748 234 516C234 492.252 258.848 473 289.5 473C320.152 473 345 492.252 345 516Z"
     fill="#00192C"
     id="path24" />
</svg>
