<?xml version="1.0" encoding="utf-8"?>
<!-- Generator: Adobe Illustrator 26.0.3, SVG Export Plug-In . SVG Version: 6.00 Build 0)  -->
<svg version="1.1" id="Layer_2" xmlns="http://www.w3.org/2000/svg" xmlns:xlink="http://www.w3.org/1999/xlink" x="0px" y="0px"
	 viewBox="0 0 201.7 52.9" style="enable-background:new 0 0 201.7 52.9;" xml:space="preserve">
<style type="text/css">
	.st0{fill:#29CAF7;}
	.st1{fill:#FFD052;}
	.st2{fill:#FE605D;}
	.st3{fill:#4ABCA1;}
	.st4{fill:#2AD2F8;}
	.st5{fill:#FFD645;}
</style>
<path class="st0" d="M11.6,13.1H7c-0.3,0-0.5-0.2-0.5-0.5V8c0-0.3,0.2-0.5,0.5-0.5h4.6c0.3,0,0.5,0.2,0.5,0.5v4.6
	C12.1,12.9,11.9,13.1,11.6,13.1z"/>
<path class="st0" d="M19.5,13.1h-4.6c-0.3,0-0.5-0.2-0.5-0.5V8c0-0.3,0.2-0.5,0.5-0.5h4.6C19.7,7.5,20,7.8,20,8v4.6
	C20,12.9,19.7,13.1,19.5,13.1z"/>
<path class="st0" d="M27.3,13.1h-4.6c-0.3,0-0.5-0.2-0.5-0.5V8c0-0.3,0.2-0.5,0.5-0.5h4.6c0.3,0,0.5,0.2,0.5,0.5v4.6
	C27.8,12.9,27.6,13.1,27.3,13.1z"/>
<path class="st0" d="M27.3,21.1h-4.6c-0.3,0-0.5-0.2-0.5-0.5V16c0-0.3,0.2-0.5,0.5-0.5h4.6c0.3,0,0.5,0.2,0.5,0.5v4.6
	C27.8,20.9,27.6,21.1,27.3,21.1z"/>
<path class="st0" d="M27.3,29.1h-4.6c-0.3,0-0.5-0.2-0.5-0.5V24c0-0.3,0.2-0.5,0.5-0.5h4.6c0.3,0,0.5,0.2,0.5,0.5v4.6
	C27.8,28.8,27.6,29.1,27.3,29.1z"/>
<path class="st0" d="M27.3,37h-4.6c-0.3,0-0.5-0.2-0.5-0.5v-4.6c0-0.3,0.2-0.5,0.5-0.5h4.6c0.3,0,0.5,0.2,0.5,0.5v4.6
	C27.8,36.8,27.6,37,27.3,37z"/>
<path class="st0" d="M27.3,45h-4.6c-0.3,0-0.5-0.2-0.5-0.5v-4.6c0-0.3,0.2-0.5,0.5-0.5h4.6c0.3,0,0.5,0.2,0.5,0.5v4.6
	C27.8,44.8,27.6,45,27.3,45z"/>
<path class="st1" d="M73.4,13.1h-4.6c-0.3,0-0.5-0.2-0.5-0.5V8c0-0.3,0.2-0.5,0.5-0.5h4.6c0.3,0,0.5,0.2,0.5,0.5v4.6
	C73.9,12.9,73.7,13.1,73.4,13.1z"/>
<path class="st1" d="M73.4,21.1h-4.6c-0.3,0-0.5-0.2-0.5-0.5V16c0-0.3,0.2-0.5,0.5-0.5h4.6c0.3,0,0.5,0.2,0.5,0.5v4.6
	C73.9,20.9,73.7,21.1,73.4,21.1z"/>
<path class="st1" d="M73.4,29.1h-4.6c-0.3,0-0.5-0.2-0.5-0.5V24c0-0.3,0.2-0.5,0.5-0.5h4.6c0.3,0,0.5,0.2,0.5,0.5v4.6
	C73.9,28.8,73.7,29.1,73.4,29.1z"/>
<path class="st1" d="M73.4,37h-4.6c-0.3,0-0.5-0.2-0.5-0.5v-4.6c0-0.3,0.2-0.5,0.5-0.5h4.6c0.3,0,0.5,0.2,0.5,0.5v4.6
	C73.9,36.8,73.7,37,73.4,37z"/>
<path class="st1" d="M73.4,45h-4.6c-0.3,0-0.5-0.2-0.5-0.5v-4.6c0-0.3,0.2-0.5,0.5-0.5h4.6c0.3,0,0.5,0.2,0.5,0.5v4.6
	C73.9,44.8,73.7,45,73.4,45z"/>
<path class="st1" d="M65.6,13.1H61c-0.3,0-0.5-0.2-0.5-0.5V8c0-0.3,0.2-0.5,0.5-0.5h4.6c0.3,0,0.5,0.2,0.5,0.5v4.6
	C66.1,12.9,65.9,13.1,65.6,13.1z"/>
<path class="st1" d="M65.6,29.1H61c-0.3,0-0.5-0.2-0.5-0.5V24c0-0.3,0.2-0.5,0.5-0.5h4.6c0.3,0,0.5,0.2,0.5,0.5v4.6
	C66.1,28.8,65.9,29.1,65.6,29.1z"/>
<path class="st1" d="M65.6,45H61c-0.3,0-0.5-0.2-0.5-0.5v-4.6c0-0.3,0.2-0.5,0.5-0.5h4.6c0.3,0,0.5,0.2,0.5,0.5v4.6
	C66.1,44.8,65.9,45,65.6,45z"/>
<path class="st1" d="M57.6,13.1H53c-0.3,0-0.5-0.2-0.5-0.5V8c0-0.3,0.2-0.5,0.5-0.5h4.6c0.3,0,0.5,0.2,0.5,0.5v4.6
	C58.1,12.9,57.9,13.1,57.6,13.1z"/>
<path class="st1" d="M57.6,45H53c-0.3,0-0.5-0.2-0.5-0.5v-4.6c0-0.3,0.2-0.5,0.5-0.5h4.6c0.3,0,0.5,0.2,0.5,0.5v4.6
	C58.1,44.8,57.9,45,57.6,45z"/>
<path class="st2" d="M103.9,13.1h-4.6c-0.3,0-0.5-0.2-0.5-0.5V8c0-0.3,0.2-0.5,0.5-0.5h4.6c0.3,0,0.5,0.2,0.5,0.5v4.6
	C104.4,12.9,104.2,13.1,103.9,13.1z"/>
<path class="st2" d="M111.8,13.1h-4.6c-0.3,0-0.5-0.2-0.5-0.5V8c0-0.3,0.2-0.5,0.5-0.5h4.6c0.3,0,0.5,0.2,0.5,0.5v4.6
	C112.3,12.9,112.1,13.1,111.8,13.1z"/>
<path class="st2" d="M119.8,13.1h-4.6c-0.3,0-0.5-0.2-0.5-0.5V8c0-0.3,0.2-0.5,0.5-0.5h4.6c0.3,0,0.5,0.2,0.5,0.5v4.6
	C120.3,12.9,120,13.1,119.8,13.1z"/>
<path class="st2" d="M96,13.1h-4.6c-0.3,0-0.5-0.2-0.5-0.5V8c0-0.3,0.2-0.5,0.5-0.5H96c0.3,0,0.5,0.2,0.5,0.5v4.6
	C96.5,12.9,96.2,13.1,96,13.1z"/>
<path class="st2" d="M87.9,13.1h-4.6c-0.3,0-0.5-0.2-0.5-0.5V8c0-0.3,0.2-0.5,0.5-0.5h4.6c0.3,0,0.5,0.2,0.5,0.5v4.6
	C88.4,12.9,88.2,13.1,87.9,13.1z"/>
<path class="st2" d="M103.9,21.1h-4.6c-0.3,0-0.5-0.2-0.5-0.5V16c0-0.3,0.2-0.5,0.5-0.5h4.6c0.3,0,0.5,0.2,0.5,0.5v4.6
	C104.4,20.9,104.2,21.1,103.9,21.1z"/>
<path class="st2" d="M103.9,29.1h-4.6c-0.3,0-0.5-0.2-0.5-0.5V24c0-0.3,0.2-0.5,0.5-0.5h4.6c0.3,0,0.5,0.2,0.5,0.5v4.6
	C104.4,28.8,104.2,29.1,103.9,29.1z"/>
<path class="st2" d="M103.9,37h-4.6c-0.3,0-0.5-0.2-0.5-0.5v-4.6c0-0.3,0.2-0.5,0.5-0.5h4.6c0.3,0,0.5,0.2,0.5,0.5v4.6
	C104.4,36.8,104.2,37,103.9,37z"/>
<path class="st2" d="M103.9,45h-4.6c-0.3,0-0.5-0.2-0.5-0.5v-4.6c0-0.3,0.2-0.5,0.5-0.5h4.6c0.3,0,0.5,0.2,0.5,0.5v4.6
	C104.4,44.8,104.2,45,103.9,45z"/>
<path class="st3" d="M134.3,13.1h-4.6c-0.3,0-0.5-0.2-0.5-0.5V8c0-0.3,0.2-0.5,0.5-0.5h4.6c0.3,0,0.5,0.2,0.5,0.5v4.6
	C134.8,12.9,134.6,13.1,134.3,13.1z"/>
<path class="st3" d="M134.3,21.1h-4.6c-0.3,0-0.5-0.2-0.5-0.5V16c0-0.3,0.2-0.5,0.5-0.5h4.6c0.3,0,0.5,0.2,0.5,0.5v4.6
	C134.8,20.9,134.6,21.1,134.3,21.1z"/>
<path class="st3" d="M134.3,29.1h-4.6c-0.3,0-0.5-0.2-0.5-0.5V24c0-0.3,0.2-0.5,0.5-0.5h4.6c0.3,0,0.5,0.2,0.5,0.5v4.6
	C134.8,28.8,134.6,29.1,134.3,29.1z"/>
<path class="st3" d="M134.3,37h-4.6c-0.3,0-0.5-0.2-0.5-0.5v-4.6c0-0.3,0.2-0.5,0.5-0.5h4.6c0.3,0,0.5,0.2,0.5,0.5v4.6
	C134.8,36.8,134.6,37,134.3,37z"/>
<path class="st3" d="M134.3,45h-4.6c-0.3,0-0.5-0.2-0.5-0.5v-4.6c0-0.3,0.2-0.5,0.5-0.5h4.6c0.3,0,0.5,0.2,0.5,0.5v4.6
	C134.8,44.8,134.6,45,134.3,45z"/>
<path class="st4" d="M164.9,13h-4.6c-0.3,0-0.5-0.2-0.5-0.5V7.9c0-0.3,0.2-0.5,0.5-0.5h4.6c0.3,0,0.5,0.2,0.5,0.5v4.6
	C165.4,12.8,165.2,13,164.9,13z"/>
<path class="st4" d="M164.9,21h-4.6c-0.3,0-0.5-0.2-0.5-0.5v-4.6c0-0.3,0.2-0.5,0.5-0.5h4.6c0.3,0,0.5,0.2,0.5,0.5v4.6
	C165.4,20.8,165.2,21,164.9,21z"/>
<path class="st4" d="M164.9,29h-4.6c-0.3,0-0.5-0.2-0.5-0.5v-4.6c0-0.3,0.2-0.5,0.5-0.5h4.6c0.3,0,0.5,0.2,0.5,0.5v4.6
	C165.4,28.7,165.2,29,164.9,29z"/>
<path class="st4" d="M164.9,36.9h-4.6c-0.3,0-0.5-0.2-0.5-0.5v-4.6c0-0.3,0.2-0.5,0.5-0.5h4.6c0.3,0,0.5,0.2,0.5,0.5v4.6
	C165.4,36.7,165.2,36.9,164.9,36.9z"/>
<path class="st4" d="M164.9,44.9h-4.6c-0.3,0-0.5-0.2-0.5-0.5v-4.6c0-0.3,0.2-0.5,0.5-0.5h4.6c0.3,0,0.5,0.2,0.5,0.5v4.6
	C165.4,44.7,165.2,44.9,164.9,44.9z"/>
<path class="st5" d="M179.2,13.7h-4.6c-0.3,0-0.5-0.2-0.5-0.5V8.6c0-0.3,0.2-0.5,0.5-0.5h4.6c0.3,0,0.5,0.2,0.5,0.5v4.6
	C179.7,13.5,179.5,13.7,179.2,13.7z"/>
<path class="st5" d="M179.2,21.7h-4.6c-0.3,0-0.5-0.2-0.5-0.5v-4.6c0-0.3,0.2-0.5,0.5-0.5h4.6c0.3,0,0.5,0.2,0.5,0.5v4.6
	C179.7,21.5,179.5,21.7,179.2,21.7z"/>
<path class="st5" d="M179.2,29.7h-4.6c-0.3,0-0.5-0.2-0.5-0.5v-4.6c0-0.3,0.2-0.5,0.5-0.5h4.6c0.3,0,0.5,0.2,0.5,0.5v4.6
	C179.7,29.4,179.5,29.7,179.2,29.7z"/>
<path class="st5" d="M179.2,45.6h-4.6c-0.3,0-0.5-0.2-0.5-0.5v-4.6c0-0.3,0.2-0.5,0.5-0.5h4.6c0.3,0,0.5,0.2,0.5,0.5v4.6
	C179.7,45.4,179.5,45.6,179.2,45.6z"/>
<path class="st5" d="M187.3,13.7h-4.6c-0.3,0-0.5-0.2-0.5-0.5V8.6c0-0.3,0.2-0.5,0.5-0.5h4.6c0.3,0,0.5,0.2,0.5,0.5v4.6
	C187.8,13.5,187.6,13.7,187.3,13.7z"/>
<path class="st5" d="M187.3,29.7h-4.6c-0.3,0-0.5-0.2-0.5-0.5v-4.6c0-0.3,0.2-0.5,0.5-0.5h4.6c0.3,0,0.5,0.2,0.5,0.5v4.6
	C187.8,29.4,187.6,29.7,187.3,29.7z"/>
<path class="st5" d="M187.3,45.6h-4.6c-0.3,0-0.5-0.2-0.5-0.5v-4.6c0-0.3,0.2-0.5,0.5-0.5h4.6c0.3,0,0.5,0.2,0.5,0.5v4.6
	C187.8,45.4,187.6,45.6,187.3,45.6z"/>
<path class="st5" d="M195.2,13.7h-4.6c-0.3,0-0.5-0.2-0.5-0.5V8.6c0-0.3,0.2-0.5,0.5-0.5h4.6c0.3,0,0.5,0.2,0.5,0.5v4.6
	C195.7,13.5,195.4,13.7,195.2,13.7z"/>
<path class="st5" d="M195.2,29.7h-4.6c-0.3,0-0.5-0.2-0.5-0.5v-4.6c0-0.3,0.2-0.5,0.5-0.5h4.6c0.3,0,0.5,0.2,0.5,0.5v4.6
	C195.7,29.4,195.4,29.7,195.2,29.7z"/>
<path class="st5" d="M195.2,37.6h-4.6c-0.3,0-0.5-0.2-0.5-0.5v-4.6c0-0.3,0.2-0.5,0.5-0.5h4.6c0.3,0,0.5,0.2,0.5,0.5v4.6
	C195.7,37.4,195.4,37.6,195.2,37.6z"/>
<path class="st5" d="M195.2,45.6h-4.6c-0.3,0-0.5-0.2-0.5-0.5v-4.6c0-0.3,0.2-0.5,0.5-0.5h4.6c0.3,0,0.5,0.2,0.5,0.5v4.6
	C195.7,45.4,195.4,45.6,195.2,45.6z"/>
<path class="st3" d="M142.2,13.1h-4.6c-0.3,0-0.5-0.2-0.5-0.5V8c0-0.3,0.2-0.5,0.5-0.5h4.6c0.3,0,0.5,0.2,0.5,0.5v4.6
	C142.7,12.9,142.4,13.1,142.2,13.1z"/>
<path class="st3" d="M142.2,29.1h-4.6c-0.3,0-0.5-0.2-0.5-0.5V24c0-0.3,0.2-0.5,0.5-0.5h4.6c0.3,0,0.5,0.2,0.5,0.5v4.6
	C142.7,28.8,142.4,29.1,142.2,29.1z"/>
<path class="st3" d="M142.2,37h-4.6c-0.3,0-0.5-0.2-0.5-0.5v-4.6c0-0.3,0.2-0.5,0.5-0.5h4.6c0.3,0,0.5,0.2,0.5,0.5v4.6
	C142.7,36.8,142.4,37,142.2,37z"/>
<path class="st3" d="M150,13.1h-4.6c-0.3,0-0.5-0.2-0.5-0.5V8c0-0.3,0.2-0.5,0.5-0.5h4.6c0.3,0,0.5,0.2,0.5,0.5v4.6
	C150.5,12.9,150.3,13.1,150,13.1z"/>
<path class="st3" d="M150,21.1h-4.6c-0.3,0-0.5-0.2-0.5-0.5V16c0-0.3,0.2-0.5,0.5-0.5h4.6c0.3,0,0.5,0.2,0.5,0.5v4.6
	C150.5,20.9,150.3,21.1,150,21.1z"/>
<path class="st3" d="M150,29.1h-4.6c-0.3,0-0.5-0.2-0.5-0.5V24c0-0.3,0.2-0.5,0.5-0.5h4.6c0.3,0,0.5,0.2,0.5,0.5v4.6
	C150.5,28.8,150.3,29.1,150,29.1z"/>
<path class="st3" d="M148.9,45h-4.6c-0.3,0-0.5-0.2-0.5-0.5v-4.6c0-0.3,0.2-0.5,0.5-0.5h4.6c0.3,0,0.5,0.2,0.5,0.5v4.6
	C149.4,44.8,149.2,45,148.9,45z"/>
<path class="st0" d="M35.2,13.1h-4.6c-0.3,0-0.5-0.2-0.5-0.5V8c0-0.3,0.2-0.5,0.5-0.5h4.6c0.3,0,0.5,0.2,0.5,0.5v4.6
	C35.7,12.9,35.5,13.1,35.2,13.1z"/>
<path class="st0" d="M43.1,13.1h-4.6c-0.3,0-0.5-0.2-0.5-0.5V8c0-0.3,0.2-0.5,0.5-0.5h4.6c0.3,0,0.5,0.2,0.5,0.5v4.6
	C43.6,12.9,43.3,13.1,43.1,13.1z"/>
</svg>
