<?xml version="1.0" encoding="utf-8"?>
<!-- Generator: Adobe Illustrator 26.0.3, SVG Export Plug-In . SVG Version: 6.00 Build 0)  -->
<svg version="1.1" id="Layer_2" xmlns="http://www.w3.org/2000/svg" xmlns:xlink="http://www.w3.org/1999/xlink" x="0px" y="0px"
	 viewBox="0 0 63.4 430.7" style="enable-background:new 0 0 63.4 430.7;" xml:space="preserve">
<style type="text/css">
	.st0{fill:#29CAF7;}
	.st1{fill:#FE605D;}
	.st2{fill:#2AD2F8;}
	.st3{fill:#4ABCA1;}
	.st4{fill:#FFD052;}
</style>
<path class="st0" d="M13.7,15.2H7.4c-1,0-1.8-0.8-1.8-1.8V7.1c0-1,0.8-1.8,1.8-1.8h6.3c1,0,1.8,0.8,1.8,1.8v6.3
	C15.5,14.5,14.7,15.2,13.7,15.2z"/>
<path class="st0" d="M24.2,15.2h-6.3c-1,0-1.8-0.8-1.8-1.8V7.1c0-1,0.8-1.8,1.8-1.8h6.3c1,0,1.8,0.8,1.8,1.8v6.3
	C26,14.5,25.2,15.2,24.2,15.2z"/>
<path class="st0" d="M34.7,15.2h-6.3c-1,0-1.8-0.8-1.8-1.8V7.1c0-1,0.8-1.8,1.8-1.8h6.3c1,0,1.8,0.8,1.8,1.8v6.3
	C36.5,14.5,35.7,15.2,34.7,15.2z"/>
<path class="st0" d="M34.7,25.7h-6.3c-1,0-1.8-0.8-1.8-1.8v-6.3c0-1,0.8-1.8,1.8-1.8h6.3c1,0,1.8,0.8,1.8,1.8V24
	C36.5,24.9,35.7,25.7,34.7,25.7z"/>
<path class="st0" d="M34.7,36.2h-6.3c-1,0-1.8-0.8-1.8-1.8v-6.3c0-1,0.8-1.8,1.8-1.8h6.3c1,0,1.8,0.8,1.8,1.8v6.3
	C36.5,35.4,35.7,36.2,34.7,36.2z"/>
<path class="st0" d="M34.7,46.7h-6.3c-1,0-1.8-0.8-1.8-1.8v-6.3c0-1,0.8-1.8,1.8-1.8h6.3c1,0,1.8,0.8,1.8,1.8v6.3
	C36.5,45.9,35.7,46.7,34.7,46.7z"/>
<path class="st0" d="M34.7,57.2h-6.3c-1,0-1.8-0.8-1.8-1.8v-6.3c0-1,0.8-1.8,1.8-1.8h6.3c1,0,1.8,0.8,1.8,1.8v6.3
	C36.5,56.4,35.7,57.2,34.7,57.2z"/>
<path class="st0" d="M45.2,15.2h-6.3c-1,0-1.8-0.8-1.8-1.8V7.1c0-1,0.8-1.8,1.8-1.8h6.3c1,0,1.8,0.8,1.8,1.8v6.3
	C47,14.5,46.2,15.2,45.2,15.2z"/>
<path class="st0" d="M55.7,15.2h-6.3c-1,0-1.8-0.8-1.8-1.8V7.1c0-1,0.8-1.8,1.8-1.8h6.3c1,0,1.8,0.8,1.8,1.8v6.3
	C57.4,14.5,56.7,15.2,55.7,15.2z"/>
<path class="st1" d="M13.7,172.4H7.4c-1,0-1.8-0.8-1.8-1.8v-6.3c0-1,0.8-1.8,1.8-1.8h6.3c1,0,1.8,0.8,1.8,1.8v6.3
	C15.5,171.6,14.7,172.4,13.7,172.4z"/>
<path class="st1" d="M24.2,172.4h-6.3c-1,0-1.8-0.8-1.8-1.8v-6.3c0-1,0.8-1.8,1.8-1.8h6.3c1,0,1.8,0.8,1.8,1.8v6.3
	C26,171.6,25.2,172.4,24.2,172.4z"/>
<path class="st1" d="M34.7,172.4h-6.3c-1,0-1.8-0.8-1.8-1.8v-6.3c0-1,0.8-1.8,1.8-1.8h6.3c1,0,1.8,0.8,1.8,1.8v6.3
	C36.5,171.6,35.7,172.4,34.7,172.4z"/>
<path class="st1" d="M34.7,182.8h-6.3c-1,0-1.8-0.8-1.8-1.8v-6.3c0-1,0.8-1.8,1.8-1.8h6.3c1,0,1.8,0.8,1.8,1.8v6.3
	C36.5,182.1,35.7,182.8,34.7,182.8z"/>
<path class="st1" d="M34.7,193.3h-6.3c-1,0-1.8-0.8-1.8-1.8v-6.3c0-1,0.8-1.8,1.8-1.8h6.3c1,0,1.8,0.8,1.8,1.8v6.3
	C36.5,192.5,35.7,193.3,34.7,193.3z"/>
<path class="st1" d="M34.7,203.8h-6.3c-1,0-1.8-0.8-1.8-1.8v-6.3c0-1,0.8-1.8,1.8-1.8h6.3c1,0,1.8,0.8,1.8,1.8v6.3
	C36.5,203,35.7,203.8,34.7,203.8z"/>
<path class="st1" d="M34.7,214.3h-6.3c-1,0-1.8-0.8-1.8-1.8v-6.3c0-1,0.8-1.8,1.8-1.8h6.3c1,0,1.8,0.8,1.8,1.8v6.3
	C36.5,213.5,35.7,214.3,34.7,214.3z"/>
<path class="st2" d="M34.7,327.1h-6.3c-1,0-1.8-0.8-1.8-1.8V319c0-1,0.8-1.8,1.8-1.8h6.3c1,0,1.8,0.8,1.8,1.8v6.3
	C36.5,326.4,35.7,327.1,34.7,327.1z"/>
<path class="st2" d="M34.7,337.6h-6.3c-1,0-1.8-0.8-1.8-1.8v-6.3c0-1,0.8-1.8,1.8-1.8h6.3c1,0,1.8,0.8,1.8,1.8v6.3
	C36.5,336.8,35.7,337.6,34.7,337.6z"/>
<path class="st2" d="M34.7,348.1h-6.3c-1,0-1.8-0.8-1.8-1.8V340c0-1,0.8-1.8,1.8-1.8h6.3c1,0,1.8,0.8,1.8,1.8v6.3
	C36.5,347.3,35.7,348.1,34.7,348.1z"/>
<path class="st2" d="M34.7,358.6h-6.3c-1,0-1.8-0.8-1.8-1.8v-6.3c0-1,0.8-1.8,1.8-1.8h6.3c1,0,1.8,0.8,1.8,1.8v6.3
	C36.5,357.8,35.7,358.6,34.7,358.6z"/>
<path class="st2" d="M34.7,369.1h-6.3c-1,0-1.8-0.8-1.8-1.8V361c0-1,0.8-1.8,1.8-1.8h6.3c1,0,1.8,0.8,1.8,1.8v6.3
	C36.5,368.3,35.7,369.1,34.7,369.1z"/>
<path class="st1" d="M45.2,172.4h-6.3c-1,0-1.8-0.8-1.8-1.8v-6.3c0-1,0.8-1.8,1.8-1.8h6.3c1,0,1.8,0.8,1.8,1.8v6.3
	C47,171.6,46.2,172.4,45.2,172.4z"/>
<path class="st1" d="M55.7,172.4h-6.3c-1,0-1.8-0.8-1.8-1.8v-6.3c0-1,0.8-1.8,1.8-1.8h6.3c1,0,1.8,0.8,1.8,1.8v6.3
	C57.4,171.6,56.7,172.4,55.7,172.4z"/>
<path class="st3" d="M24.2,249.6h-6.3c-1,0-1.8-0.8-1.8-1.8v-6.3c0-1,0.8-1.8,1.8-1.8h6.3c1,0,1.8,0.8,1.8,1.8v6.3
	C26,248.9,25.2,249.6,24.2,249.6z"/>
<path class="st3" d="M24.2,260.1h-6.3c-1,0-1.8-0.8-1.8-1.8V252c0-1,0.8-1.8,1.8-1.8h6.3c1,0,1.8,0.8,1.8,1.8v6.3
	C26,259.3,25.2,260.1,24.2,260.1z"/>
<path class="st3" d="M24.2,270.6h-6.3c-1,0-1.8-0.8-1.8-1.8v-6.3c0-1,0.8-1.8,1.8-1.8h6.3c1,0,1.8,0.8,1.8,1.8v6.3
	C26,269.8,25.2,270.6,24.2,270.6z"/>
<path class="st3" d="M24.2,281.1h-6.3c-1,0-1.8-0.8-1.8-1.8V273c0-1,0.8-1.8,1.8-1.8h6.3c1,0,1.8,0.8,1.8,1.8v6.3
	C26,280.3,25.2,281.1,24.2,281.1z"/>
<path class="st3" d="M24.2,291.6h-6.3c-1,0-1.8-0.8-1.8-1.8v-6.3c0-1,0.8-1.8,1.8-1.8h6.3c1,0,1.8,0.8,1.8,1.8v6.3
	C26,290.8,25.2,291.6,24.2,291.6z"/>
<path class="st3" d="M42.6,291.6h-6.3c-1,0-1.8-0.8-1.8-1.8v-6.3c0-1,0.8-1.8,1.8-1.8h6.3c1,0,1.8,0.8,1.8,1.8v6.3
	C44.4,290.8,43.6,291.6,42.6,291.6z"/>
<path class="st3" d="M34.7,249.6h-6.3c-1,0-1.8-0.8-1.8-1.8v-6.3c0-1,0.8-1.8,1.8-1.8h6.3c1,0,1.8,0.8,1.8,1.8v6.3
	C36.5,248.9,35.7,249.6,34.7,249.6z"/>
<path class="st3" d="M45.2,260.1h-6.3c-1,0-1.8-0.8-1.8-1.8V252c0-1,0.8-1.8,1.8-1.8h6.3c1,0,1.8,0.8,1.8,1.8v6.3
	C47,259.3,46.2,260.1,45.2,260.1z"/>
<path class="st3" d="M45.2,270.6h-6.3c-1,0-1.8-0.8-1.8-1.8v-6.3c0-1,0.8-1.8,1.8-1.8h6.3c1,0,1.8,0.8,1.8,1.8v6.3
	C47,269.8,46.2,270.6,45.2,270.6z"/>
<path class="st3" d="M34.7,270.6h-6.3c-1,0-1.8-0.8-1.8-1.8v-6.3c0-1,0.8-1.8,1.8-1.8h6.3c1,0,1.8,0.8,1.8,1.8v6.3
	C36.5,269.8,35.7,270.6,34.7,270.6z"/>
<path class="st3" d="M34.7,281.1h-6.3c-1,0-1.8-0.8-1.8-1.8V273c0-1,0.8-1.8,1.8-1.8h6.3c1,0,1.8,0.8,1.8,1.8v6.3
	C36.5,280.3,35.7,281.1,34.7,281.1z"/>
<path class="st3" d="M45.2,249.6h-6.3c-1,0-1.8-0.8-1.8-1.8v-6.3c0-1,0.8-1.8,1.8-1.8h6.3c1,0,1.8,0.8,1.8,1.8v6.3
	C47,248.9,46.2,249.6,45.2,249.6z"/>
<path class="st4" d="M24.2,93.3h-6.3c-1,0-1.8-0.8-1.8-1.8v-6.3c0-1,0.8-1.8,1.8-1.8h6.3c1,0,1.8,0.8,1.8,1.8v6.3
	C26,92.5,25.2,93.3,24.2,93.3z"/>
<path class="st4" d="M24.2,135.2h-6.3c-1,0-1.8-0.8-1.8-1.8v-6.3c0-1,0.8-1.8,1.8-1.8h6.3c1,0,1.8,0.8,1.8,1.8v6.3
	C26,134.5,25.2,135.2,24.2,135.2z"/>
<path class="st4" d="M34.7,93.3h-6.3c-1,0-1.8-0.8-1.8-1.8v-6.3c0-1,0.8-1.8,1.8-1.8h6.3c1,0,1.8,0.8,1.8,1.8v6.3
	C36.5,92.5,35.7,93.3,34.7,93.3z"/>
<path class="st4" d="M45.2,103.8h-6.3c-1,0-1.8-0.8-1.8-1.8v-6.3c0-1,0.8-1.8,1.8-1.8h6.3c1,0,1.8,0.8,1.8,1.8v6.3
	C47,103,46.2,103.8,45.2,103.8z"/>
<path class="st4" d="M34.7,114.3h-6.3c-1,0-1.8-0.8-1.8-1.8v-6.3c0-1,0.8-1.8,1.8-1.8h6.3c1,0,1.8,0.8,1.8,1.8v6.3
	C36.5,113.5,35.7,114.3,34.7,114.3z"/>
<path class="st4" d="M45.2,114.3h-6.3c-1,0-1.8-0.8-1.8-1.8v-6.3c0-1,0.8-1.8,1.8-1.8h6.3c1,0,1.8,0.8,1.8,1.8v6.3
	C47,113.5,46.2,114.3,45.2,114.3z"/>
<path class="st4" d="M45.2,124.8h-6.3c-1,0-1.8-0.8-1.8-1.8v-6.3c0-1,0.8-1.8,1.8-1.8h6.3c1,0,1.8,0.8,1.8,1.8v6.3
	C47,124,46.2,124.8,45.2,124.8z"/>
<path class="st4" d="M45.2,135.2h-6.3c-1,0-1.8-0.8-1.8-1.8v-6.3c0-1,0.8-1.8,1.8-1.8h6.3c1,0,1.8,0.8,1.8,1.8v6.3
	C47,134.5,46.2,135.2,45.2,135.2z"/>
<path class="st4" d="M34.7,135.2h-6.3c-1,0-1.8-0.8-1.8-1.8v-6.3c0-1,0.8-1.8,1.8-1.8h6.3c1,0,1.8,0.8,1.8,1.8v6.3
	C36.5,134.5,35.7,135.2,34.7,135.2z"/>
<path class="st4" d="M45.2,93.3h-6.3c-1,0-1.8-0.8-1.8-1.8v-6.3c0-1,0.8-1.8,1.8-1.8h6.3c1,0,1.8,0.8,1.8,1.8v6.3
	C47,92.5,46.2,93.3,45.2,93.3z"/>
<path class="st4" d="M15,417.6v6.3c0,1-0.8,1.8-1.8,1.8H6.9c-1,0-1.8-0.8-1.8-1.8v-6.3c0-1,0.8-1.8,1.8-1.8h6.3
	C14.2,415.9,15,416.7,15,417.6z"/>
<path class="st4" d="M57,417.6v6.3c0,1-0.8,1.8-1.8,1.8h-6.3c-1,0-1.8-0.8-1.8-1.8v-6.3c0-1,0.8-1.8,1.8-1.8h6.3
	C56.2,415.9,57,416.7,57,417.6z"/>
<path class="st4" d="M15,407.1v6.3c0,1-0.8,1.8-1.8,1.8H6.9c-1,0-1.8-0.8-1.8-1.8v-6.3c0-1,0.8-1.8,1.8-1.8h6.3
	C14.2,405.4,15,406.2,15,407.1z"/>
<path class="st4" d="M25.5,417.6v6.3c0,1-0.8,1.8-1.8,1.8h-6.3c-1,0-1.8-0.8-1.8-1.8v-6.3c0-1,0.8-1.8,1.8-1.8h6.3
	C24.7,415.9,25.5,416.7,25.5,417.6z"/>
<path class="st4" d="M36,407.1v6.3c0,1-0.8,1.8-1.8,1.8h-6.3c-1,0-1.8-0.8-1.8-1.8v-6.3c0-1,0.8-1.8,1.8-1.8h6.3
	C35.2,405.4,36,406.2,36,407.1z"/>
<path class="st4" d="M36,417.6v6.3c0,1-0.8,1.8-1.8,1.8h-6.3c-1,0-1.8-0.8-1.8-1.8v-6.3c0-1,0.8-1.8,1.8-1.8h6.3
	C35.2,415.9,36,416.7,36,417.6z"/>
<path class="st4" d="M36,396.7v6.3c0,1-0.8,1.8-1.8,1.8h-6.3c-1,0-1.8-0.8-1.8-1.8v-6.3c0-1,0.8-1.8,1.8-1.8h6.3
	C35.2,394.9,36,395.7,36,396.7z"/>
<path class="st4" d="M46.5,396.7v6.3c0,1-0.8,1.8-1.8,1.8h-6.3c-1,0-1.8-0.8-1.8-1.8v-6.3c0-1,0.8-1.8,1.8-1.8h6.3
	C45.7,394.9,46.5,395.7,46.5,396.7z"/>
<path class="st4" d="M57,396.7v6.3c0,1-0.8,1.8-1.8,1.8h-6.3c-1,0-1.8-0.8-1.8-1.8v-6.3c0-1,0.8-1.8,1.8-1.8h6.3
	C56.2,394.9,57,395.7,57,396.7z"/>
<path class="st4" d="M57,407.1v6.3c0,1-0.8,1.8-1.8,1.8h-6.3c-1,0-1.8-0.8-1.8-1.8v-6.3c0-1,0.8-1.8,1.8-1.8h6.3
	C56.2,405.4,57,406.2,57,407.1z"/>
<path class="st4" d="M15,396.7v6.3c0,1-0.8,1.8-1.8,1.8H6.9c-1,0-1.8-0.8-1.8-1.8v-6.3c0-1,0.8-1.8,1.8-1.8h6.3
	C14.2,394.9,15,395.7,15,396.7z"/>
</svg>
