<svg viewBox="0 0 647 134" fill="none" xmlns="http://www.w3.org/2000/svg">
<rect x="519.141" y="0.0939178" width="24.7209" height="24.7209" rx="3" fill="#29CFF5"/>
<rect x="519.141" y="26.875" width="24.7209" height="24.7209" rx="3" fill="#29CFF5"/>
<rect x="519.141" y="53.656" width="24.7209" height="24.7209" rx="3" fill="#29CFF5"/>
<rect x="519.141" y="80.4365" width="24.7209" height="24.7209" rx="3" fill="#29CFF5"/>
<rect x="519.141" y="107.219" width="24.7209" height="24.7209" rx="3" fill="#29CFF5"/>
<rect y="0.0940247" width="24.7209" height="24.7209" rx="3" fill="#29CFF5"/>
<rect x="26.7812" y="0.0939026" width="24.7209" height="24.7209" rx="3" fill="#29CFF5"/>
<rect x="53.5623" y="0.0939026" width="24.7209" height="24.7209" rx="3" fill="#29CFF5"/>
<rect x="53.5623" y="26.875" width="24.7209" height="24.7209" rx="3" fill="#29CFF5"/>
<rect x="53.5623" y="53.6554" width="24.7209" height="24.7209" rx="3" fill="#29CFF5"/>
<rect x="53.5623" y="80.4365" width="24.7209" height="24.7209" rx="3" fill="#29CFF5"/>
<rect x="53.5623" y="107.219" width="24.7209" height="24.7209" rx="3" fill="#29CFF5"/>
<rect x="80.3428" y="0.0939026" width="24.7209" height="24.7209" rx="3" fill="#29CFF5"/>
<rect x="107.124" y="0.0939026" width="24.7209" height="24.7209" rx="3" fill="#29CFF5"/>
<rect x="259.569" y="0.0940247" width="24.7209" height="24.7209" rx="3" fill="#FF5F63"/>
<rect x="286.35" y="0.0939026" width="24.7209" height="24.7209" rx="3" fill="#FF5F63"/>
<rect x="313.131" y="0.0939026" width="24.7209" height="24.7209" rx="3" fill="#FF5F63"/>
<rect x="313.131" y="26.875" width="24.7209" height="24.7209" rx="3" fill="#FF5F63"/>
<rect x="313.131" y="53.656" width="24.7209" height="24.7209" rx="3" fill="#FF5F63"/>
<rect x="313.131" y="80.4365" width="24.7209" height="24.7209" rx="3" fill="#FF5F63"/>
<rect x="313.131" y="107.218" width="24.7209" height="24.7209" rx="3" fill="#FF5F63"/>
<rect x="339.911" y="0.0939026" width="24.7209" height="24.7209" rx="3" fill="#FF5F63"/>
<rect x="366.693" y="0.0939026" width="24.7209" height="24.7209" rx="3" fill="#FF5F63"/>
<rect x="469.699" y="28.9353" width="24.7209" height="24.7209" rx="3" fill="#49BCA1"/>
<rect x="469.699" y="55.7164" width="24.7209" height="24.7209" rx="3" fill="#49BCA1"/>
<rect x="442.918" y="80.4365" width="24.7209" height="24.7209" rx="3" fill="#49BCA1"/>
<rect x="467.64" y="105.158" width="24.7209" height="24.7209" rx="3" fill="#49BCA1"/>
<rect x="442.918" y="53.656" width="24.7209" height="24.7209" rx="3" fill="#49BCA1"/>
<rect x="416.136" y="0.0940247" width="24.7209" height="24.7209" rx="3" fill="#49BCA1"/>
<rect x="416.136" y="26.875" width="24.7209" height="24.7209" rx="3" fill="#49BCA1"/>
<rect x="416.136" y="53.656" width="24.7209" height="24.7209" rx="3" fill="#49BCA1"/>
<rect x="416.136" y="80.4365" width="24.7209" height="24.7209" rx="3" fill="#49BCA1"/>
<rect x="416.136" y="107.218" width="24.7209" height="24.7209" rx="3" fill="#49BCA1"/>
<rect x="442.918" y="0.0939026" width="24.7209" height="24.7209" rx="3" fill="#49BCA1"/>
<rect x="469.699" y="0.0939026" width="24.7209" height="24.7209" rx="3" fill="#49BCA1"/>
<rect x="568.581" y="28.936" width="24.7209" height="24.7209" rx="3" fill="#FED546"/>
<rect x="622.144" y="55.7164" width="24.7209" height="24.7209" rx="3" fill="#FED546"/>
<rect x="622.144" y="109.279" width="24.7209" height="24.7209" rx="3" fill="#FED546"/>
<rect x="622.144" y="82.4974" width="24.7209" height="24.7209" rx="3" fill="#FED546"/>
<rect x="568.581" y="2.15488" width="24.7209" height="24.7209" rx="3" fill="#FED546"/>
<rect x="568.581" y="55.7164" width="24.7209" height="24.7209" rx="3" fill="#FED546"/>
<rect x="595.362" y="55.7164" width="24.7209" height="24.7209" rx="3" fill="#FED546"/>
<rect x="595.362" y="109.279" width="24.7209" height="24.7209" rx="3" fill="#FED546"/>
<rect x="568.581" y="109.279" width="24.7209" height="24.7209" rx="3" fill="#FED546"/>
<rect x="595.362" y="2.15488" width="24.7209" height="24.7209" rx="3" fill="#FED546"/>
<rect x="622.144" y="2.15488" width="24.7209" height="24.7209" rx="3" fill="#FED546"/>
<rect x="235.038" y="131.845" width="24.7209" height="24.7209" rx="3" transform="rotate(-180 235.038 131.845)" fill="#FED546"/>
<rect x="234.942" y="105.065" width="24.7209" height="24.7209" rx="3" transform="rotate(-180 234.942 105.065)" fill="#FED546"/>
<rect x="234.848" y="78.2837" width="24.7209" height="24.7209" rx="3" transform="rotate(-180 234.848 78.2837)" fill="#FED546"/>
<rect x="208.067" y="78.3788" width="24.7209" height="24.7209" rx="3" transform="rotate(-180 208.067 78.3788)" fill="#FED546"/>
<rect x="234.754" y="51.5033" width="24.7209" height="24.7209" rx="3" transform="rotate(-180 234.754 51.5033)" fill="#FED546"/>
<rect x="234.659" y="24.721" width="24.7209" height="24.7209" rx="3" transform="rotate(-180 234.659 24.721)" fill="#FED546"/>
<rect x="207.878" y="24.816" width="24.7209" height="24.7209" rx="3" transform="rotate(-180 207.878 24.816)" fill="#FED546"/>
<rect x="181.096" y="24.9105" width="24.7209" height="24.7209" rx="3" transform="rotate(-180 181.096 24.9105)" fill="#FED546"/>
<rect x="208.255" y="131.939" width="24.7209" height="24.7209" rx="3" transform="rotate(-180 208.255 131.939)" fill="#FED546"/>
<rect x="181.476" y="132.034" width="24.7209" height="24.7209" rx="3" transform="rotate(-180 181.476 132.034)" fill="#FED546"/>
</svg>
