<svg width="686" height="103" viewBox="0 0 686 103" fill="none" xmlns="http://www.w3.org/2000/svg">
<rect x="343.055" width="18.7643" height="18.7643" rx="3" fill="#29CFF5"/>
<rect x="343.055" y="60" width="18.7643" height="18.7643" rx="3" fill="#29CFF5"/>
<rect x="343.055" y="80" width="18.7643" height="18.7643" rx="3" fill="#29CFF5"/>
<rect x="363.055" y="80" width="18.7643" height="18.7643" rx="3" fill="#29CFF5"/>
<rect x="383.055" y="80" width="18.7643" height="18.7643" rx="3" fill="#29CFF5"/>
<rect x="343.055" y="40" width="18.7643" height="18.7643" rx="3" fill="#29CFF5"/>
<rect x="343.055" y="20" width="18.7643" height="18.7643" rx="3" fill="#29CFF5"/>
<rect x="413.818" y="1" width="18.7643" height="18.7643" rx="3" fill="#FF5F63"/>
<rect x="413.818" y="61" width="18.7643" height="18.7643" rx="3" fill="#FF5F63"/>
<rect x="413.818" y="81" width="18.7643" height="18.7643" rx="3" fill="#FF5F63"/>
<rect x="413.818" y="41" width="18.7643" height="18.7643" rx="3" fill="#FF5F63"/>
<rect x="413.818" y="21" width="18.7643" height="18.7643" rx="3" fill="#FF5F63"/>
<rect x="40" y="1" width="18.7643" height="18.7643" rx="3" fill="#29CFF5"/>
<rect x="40" y="20.9277" width="18.7643" height="18.7643" rx="3" fill="#29CFF5"/>
<rect x="40" y="40.9277" width="18.7643" height="18.7643" rx="3" fill="#29CFF5"/>
<rect x="40" y="60.9277" width="18.7643" height="18.7643" rx="3" fill="#29CFF5"/>
<rect x="40" y="80.9277" width="18.7643" height="18.7643" rx="3" fill="#29CFF5"/>
<rect y="1" width="18.7643" height="18.7643" rx="3" fill="#29CFF5"/>
<rect x="60" y="1" width="18.7643" height="18.7643" rx="3" fill="#29CFF5"/>
<rect x="80" y="1" width="18.7643" height="18.7643" rx="3" fill="#29CFF5"/>
<rect x="20" y="1" width="18.7643" height="18.7643" rx="3" fill="#29CFF5"/>
<rect x="556.002" y="2" width="18.7643" height="18.7643" rx="3" fill="#49BCA1"/>
<rect x="556.002" y="21.9277" width="18.7643" height="18.7643" rx="3" fill="#49BCA1"/>
<rect x="556.002" y="41.9277" width="18.7643" height="18.7643" rx="3" fill="#49BCA1"/>
<rect x="556.002" y="61.9277" width="18.7643" height="18.7643" rx="3" fill="#49BCA1"/>
<rect x="556.002" y="81.9277" width="18.7643" height="18.7643" rx="3" fill="#49BCA1"/>
<rect x="516.002" y="2" width="18.7643" height="18.7643" rx="3" fill="#49BCA1"/>
<rect x="576.002" y="2" width="18.7643" height="18.7643" rx="3" fill="#49BCA1"/>
<rect x="596.002" y="2" width="18.7643" height="18.7643" rx="3" fill="#49BCA1"/>
<rect x="536.002" y="2" width="18.7643" height="18.7643" rx="3" fill="#49BCA1"/>
<rect x="110.764" y="1" width="18.7643" height="18.7643" rx="3" fill="#FF5F63"/>
<rect x="110.764" y="21" width="18.7643" height="18.7643" rx="3" fill="#FF5F63"/>
<rect x="110.764" y="41" width="18.7643" height="18.7643" rx="3" fill="#FF5F63"/>
<rect x="110.764" y="61" width="18.7643" height="18.7643" rx="3" fill="#FF5F63"/>
<rect x="110.764" y="81" width="18.7643" height="18.7643" rx="3" fill="#FF5F63"/>
<rect x="130.764" y="81" width="18.7643" height="18.7643" rx="3" fill="#FF5F63"/>
<rect x="150.764" y="81" width="18.7643" height="18.7643" rx="3" fill="#FF5F63"/>
<rect x="130.764" y="1" width="18.7643" height="18.7643" rx="3" fill="#FF5F63"/>
<rect x="150.764" y="1" width="18.7643" height="18.7643" rx="3" fill="#FF5F63"/>
<rect x="170.764" y="1" width="18.7643" height="18.7643" rx="3" fill="#FF5F63"/>
<rect x="170.764" y="21" width="18.7643" height="18.7643" rx="3" fill="#FF5F63"/>
<rect x="170.764" y="41" width="18.7643" height="18.7643" rx="3" fill="#FF5F63"/>
<rect x="170.764" y="61" width="18.7643" height="18.7643" rx="3" fill="#FF5F63"/>
<rect x="170.764" y="81" width="18.7643" height="18.7643" rx="3" fill="#FF5F63"/>
<rect x="444.582" y="21.3281" width="18.7643" height="18.7643" rx="3" fill="#FED546"/>
<rect x="485.238" y="41.6562" width="18.7643" height="18.7643" rx="3" fill="#FED546"/>
<rect x="485.238" y="82.3125" width="18.7643" height="18.7643" rx="3" fill="#FED546"/>
<rect x="485.238" y="61.9844" width="18.7643" height="18.7643" rx="3" fill="#FED546"/>
<rect x="444.582" y="1" width="18.7643" height="18.7643" rx="3" fill="#FED546"/>
<rect x="444.582" y="41.6562" width="18.7643" height="18.7643" rx="3" fill="#FED546"/>
<rect x="464.91" y="41.6562" width="18.7643" height="18.7643" rx="3" fill="#FED546"/>
<rect x="464.91" y="82.3125" width="18.7643" height="18.7643" rx="3" fill="#FED546"/>
<rect x="444.582" y="82.3125" width="18.7643" height="18.7643" rx="3" fill="#FED546"/>
<rect x="464.91" y="1" width="18.7643" height="18.7643" rx="3" fill="#FED546"/>
<rect x="485.238" y="1" width="18.7643" height="18.7643" rx="3" fill="#FED546"/>
<rect x="645.816" y="102.076" width="18.7643" height="18.7643" rx="3" transform="rotate(-180 645.816 102.076)" fill="#FF5F63"/>
<rect x="645.744" y="81.75" width="18.7643" height="18.7643" rx="3" transform="rotate(-180 645.744 81.75)" fill="#FF5F63"/>
<rect x="645.672" y="61.4199" width="18.7643" height="18.7643" rx="3" transform="rotate(-180 645.672 61.4199)" fill="#FF5F63"/>
<rect x="665.529" y="61.7637" width="18.7643" height="18.7643" rx="3" transform="rotate(-180 665.529 61.7637)" fill="#FF5F63"/>
<rect x="645.6" y="41.0938" width="18.7643" height="18.7643" rx="3" transform="rotate(-180 645.6 41.0938)" fill="#FF5F63"/>
<rect x="685.529" y="20.7637" width="18.7643" height="18.7643" rx="3" transform="rotate(-180 685.529 20.7637)" fill="#FF5F63"/>
<rect x="685.529" y="101.764" width="18.7643" height="18.7643" rx="3" transform="rotate(-180 685.529 101.764)" fill="#FF5F63"/>
<rect x="645.529" y="20.7637" width="18.7643" height="18.7643" rx="3" transform="rotate(-180 645.529 20.7637)" fill="#FF5F63"/>
<rect x="665.529" y="20.7637" width="18.7643" height="18.7643" rx="3" transform="rotate(-180 665.529 20.7637)" fill="#FF5F63"/>
<rect x="665.529" y="101.764" width="18.7643" height="18.7643" rx="3" transform="rotate(-180 665.529 101.764)" fill="#FF5F63"/>
<rect x="220.293" y="79.7637" width="18.7643" height="18.7643" rx="3" transform="rotate(-180 220.293 79.7637)" fill="#FED546"/>
<rect x="220.293" y="39.7637" width="18.7643" height="18.7643" rx="3" transform="rotate(-180 220.293 39.7637)" fill="#FED546"/>
<rect x="220.291" y="19.7637" width="18.7643" height="18.7643" rx="3" transform="rotate(-180 220.291 19.7637)" fill="#FED546"/>
<rect x="240.291" y="19.7637" width="18.7643" height="18.7643" rx="3" transform="rotate(-180 240.291 19.7637)" fill="#FED546"/>
<rect x="260.291" y="19.7637" width="18.7643" height="18.7643" rx="3" transform="rotate(-180 260.291 19.7637)" fill="#FED546"/>
<rect x="260.291" y="39.7637" width="18.7643" height="18.7643" rx="3" transform="rotate(-180 260.291 39.7637)" fill="#FED546"/>
<rect x="260.291" y="59.7637" width="18.7643" height="18.7643" rx="3" transform="rotate(-180 260.291 59.7637)" fill="#FED546"/>
<rect x="240.291" y="59.7637" width="18.7643" height="18.7643" rx="3" transform="rotate(-180 240.291 59.7637)" fill="#FED546"/>
<rect x="220.293" y="99.7637" width="18.7643" height="18.7643" rx="3" transform="rotate(-180 220.293 99.7637)" fill="#FED546"/>
<rect x="220.293" y="59.7637" width="18.7643" height="18.7643" rx="3" transform="rotate(-180 220.293 59.7637)" fill="#FED546"/>
<rect x="291.057" y="79.7637" width="18.7643" height="18.7643" rx="3" transform="rotate(-180 291.057 79.7637)" fill="#49BCA1"/>
<rect x="291.057" y="39.7637" width="18.7643" height="18.7643" rx="3" transform="rotate(-180 291.057 39.7637)" fill="#49BCA1"/>
<rect x="291.055" y="19.7637" width="18.7643" height="18.7643" rx="3" transform="rotate(-180 291.055 19.7637)" fill="#49BCA1"/>
<rect x="311.055" y="19.7637" width="18.7643" height="18.7643" rx="3" transform="rotate(-180 311.055 19.7637)" fill="#49BCA1"/>
<rect x="331.055" y="19.7637" width="18.7643" height="18.7643" rx="3" transform="rotate(-180 331.055 19.7637)" fill="#49BCA1"/>
<rect x="331.055" y="39.7637" width="18.7643" height="18.7643" rx="3" transform="rotate(-180 331.055 39.7637)" fill="#49BCA1"/>
<rect x="331.055" y="59.7637" width="18.7643" height="18.7643" rx="3" transform="rotate(-180 331.055 59.7637)" fill="#49BCA1"/>
<rect x="311.055" y="59.7637" width="18.7643" height="18.7643" rx="3" transform="rotate(-180 311.055 59.7637)" fill="#49BCA1"/>
<rect x="291.057" y="99.7637" width="18.7643" height="18.7643" rx="3" transform="rotate(-180 291.057 99.7637)" fill="#49BCA1"/>
<rect x="291.057" y="59.7637" width="18.7643" height="18.7643" rx="3" transform="rotate(-180 291.057 59.7637)" fill="#49BCA1"/>
</svg>
