<svg viewBox="0 0 727 508" fill="none" xmlns="http://www.w3.org/2000/svg">
<path fill-rule="evenodd" clip-rule="evenodd" d="M726.842 213.129V507.834H300.585V213.129C300.585 95.4209 396.006 0 513.714 0C631.421 0 726.842 95.4209 726.842 213.129Z" fill="#49BCA1"/>
<path d="M654.084 193.653C654.084 226.733 627.267 236.646 594.187 236.646C561.108 236.646 534.291 226.733 534.291 193.653C534.291 160.573 561.108 133.757 594.187 133.757C627.267 133.757 654.084 160.573 654.084 193.653Z" fill="white"/>
<path d="M487.991 193.653C487.991 226.733 461.175 236.646 428.095 236.646C395.015 236.646 368.198 226.733 368.198 193.653C368.198 160.573 395.015 133.757 428.095 133.757C461.175 133.757 487.991 160.573 487.991 193.653Z" fill="white"/>
<circle cx="576.182" cy="186.671" r="7.34926" fill="#00192C"/>
<circle cx="435.811" cy="186.671" r="7.34926" fill="#00192C"/>
<path d="M551.93 302.055C551.93 318.696 530.049 336.596 503.057 336.596C476.066 336.596 454.185 318.696 454.185 302.055C454.185 285.413 476.066 266.778 503.057 266.778C530.049 266.778 551.93 285.413 551.93 302.055Z" fill="#00192C"/>
<path fill-rule="evenodd" clip-rule="evenodd" d="M426.257 351.295C426.257 233.587 330.836 138.166 213.129 138.166C95.4209 138.166 0 233.587 0 351.295V646H426.257V351.295Z" fill="#FF5F63"/>
<circle cx="293.603" cy="331.819" r="59.8965" fill="white"/>
<circle cx="127.51" cy="331.819" r="59.8965" fill="white"/>
<circle cx="293.236" cy="369.668" r="7.34926" fill="#00192C"/>
<circle cx="127.142" cy="369.668" r="7.34926" fill="#00192C"/>
<circle cx="234.074" cy="453.082" r="17.2708" fill="#00192C"/>
<rect x="4.40918" y="263.104" width="431.402" height="144.046" rx="20" fill="#FED546"/>
</svg>
