<svg viewBox="0 0 692 484" fill="none" xmlns="http://www.w3.org/2000/svg">
<path fill-rule="evenodd" clip-rule="evenodd" d="M691.963 202.901V483.464H286.161V202.901C286.161 90.8419 377.003 0 489.062 0C601.121 0 691.963 90.8419 691.963 202.901Z" fill="#49BCA1"/>
<path d="M622.696 184.36C622.696 215.853 597.167 215.495 565.674 215.495C534.182 215.495 508.652 215.853 508.652 184.36C508.652 152.868 534.182 127.338 565.674 127.338C597.167 127.338 622.696 152.868 622.696 184.36Z" fill="white"/>
<path d="M464.573 184.36C464.573 215.853 439.043 215.495 407.551 215.495C376.059 215.495 350.529 215.853 350.529 184.36C350.529 152.868 376.059 127.338 407.551 127.338C439.043 127.338 464.573 152.868 464.573 184.36Z" fill="white"/>
<circle cx="548.532" cy="177.713" r="6.99659" fill="#00192C"/>
<circle cx="414.897" cy="177.713" r="6.99659" fill="#00192C"/>
<path d="M525.444 287.56C525.444 303.403 500.415 334.087 474.719 334.087C449.022 334.087 432.389 303.403 432.389 287.56C432.389 271.717 453.22 273.567 478.916 273.567C504.613 273.567 525.444 271.717 525.444 287.56Z" fill="#00192C"/>
<path fill-rule="evenodd" clip-rule="evenodd" d="M405.802 334.437C405.802 222.378 314.96 131.536 202.901 131.536C90.8419 131.536 0 222.378 0 334.437V615H405.802V334.437Z" fill="#FF5F63"/>
<circle cx="279.514" cy="315.896" r="57.0222" fill="white"/>
<circle cx="121.391" cy="315.896" r="57.0222" fill="white"/>
<circle cx="279.164" cy="351.928" r="6.99659" fill="#00192C"/>
<circle cx="121.041" cy="351.928" r="6.99659" fill="#00192C"/>
<path d="M239.283 431.34C239.283 440.42 231.922 447.782 222.841 447.782C213.761 447.782 206.399 440.42 206.399 431.34C206.399 422.259 213.761 427.142 222.841 427.142C231.922 427.142 239.283 422.259 239.283 431.34Z" fill="#00192C"/>
<rect x="4.19775" y="5.59729" width="410.7" height="137.133" rx="20" fill="#FED546"/>
</svg>
