<svg viewBox="0 0 717 501" fill="none" xmlns="http://www.w3.org/2000/svg">
<path fill-rule="evenodd" clip-rule="evenodd" d="M716.715 210.159V500.759H296.396V210.159C296.396 94.0915 390.488 0 506.556 0C622.624 0 716.715 94.0915 716.715 210.159Z" fill="#49BCA1"/>
<path d="M644.972 190.955C644.972 223.574 618.529 233.349 585.91 233.349C553.291 233.349 526.848 223.574 526.848 190.955C526.848 158.336 553.291 131.893 585.91 131.893C618.529 131.893 644.972 158.336 644.972 190.955Z" fill="white"/>
<path d="M481.192 190.955C481.192 223.574 454.749 233.349 422.13 233.349C389.511 233.349 363.068 223.574 363.068 190.955C363.068 158.336 389.511 131.893 422.13 131.893C454.749 131.893 481.192 158.336 481.192 190.955Z" fill="white"/>
<circle cx="568.155" cy="184.071" r="7.24687" fill="#00192C"/>
<circle cx="429.739" cy="184.071" r="7.24687" fill="#00192C"/>
<path d="M544.24 297.846C544.24 314.256 522.664 336.255 496.048 336.255C469.433 336.255 447.856 314.256 447.856 297.846C447.856 281.437 469.433 291.687 496.048 291.687C522.664 291.687 544.24 281.437 544.24 297.846Z" fill="#00192C"/>
<path fill-rule="evenodd" clip-rule="evenodd" d="M0 346.4C0 230.333 94.0915 136.241 210.159 136.241C326.227 136.241 420.319 230.333 420.319 346.4V637H0V346.4Z" fill="#FF5F63"/>
<circle cx="289.512" cy="327.196" r="59.062" fill="white"/>
<circle cx="125.733" cy="327.196" r="59.062" fill="white"/>
<circle cx="289.15" cy="364.518" r="7.24687" fill="#00192C"/>
<circle cx="125.371" cy="364.518" r="7.24687" fill="#00192C"/>
<path d="M253.64 446.77C253.64 456.175 240.218 467.061 230.813 467.061C221.407 467.061 210.159 456.175 210.159 446.77C210.159 437.364 221.407 444.596 230.813 444.596C240.218 444.596 253.64 437.364 253.64 446.77Z" fill="#00192C"/>
<rect x="4.34766" y="5.79749" width="425.391" height="142.039" rx="20" fill="#FED546"/>
</svg>
