<svg viewBox="0 0 645 447" fill="none" xmlns="http://www.w3.org/2000/svg">
<path fill-rule="evenodd" clip-rule="evenodd" d="M644.206 187.725C644.206 84.0472 560.159 0 456.481 0C352.804 0 268.757 84.0472 268.757 187.725C268.757 187.746 268.757 187.768 268.757 187.789V447.303H644.206V187.725Z" fill="#49BCA1"/>
<path d="M580.121 170.571C580.121 199.708 556.5 208.439 527.363 208.439C498.227 208.439 474.606 199.708 474.606 170.571C474.606 141.434 498.227 117.813 527.363 117.813C556.5 117.813 580.121 141.434 580.121 170.571Z" fill="white"/>
<path d="M433.825 170.571C433.825 199.708 410.205 208.439 381.068 208.439C351.931 208.439 328.311 199.708 328.311 170.571C328.311 141.434 351.931 117.813 381.068 117.813C410.205 117.813 433.825 141.434 433.825 170.571Z" fill="white"/>
<circle cx="511.504" cy="164.421" r="6.47327" fill="#00192C"/>
<circle cx="387.865" cy="164.421" r="6.47327" fill="#00192C"/>
<path d="M490.142 266.051C490.142 280.709 470.869 292.592 447.095 292.592C423.321 292.592 404.048 280.709 404.048 266.051C404.048 251.393 423.321 253.105 447.095 253.105C470.869 253.105 490.142 251.393 490.142 266.051Z" fill="#00192C"/>
<path fill-rule="evenodd" clip-rule="evenodd" d="M379.449 309.422C379.449 205.745 295.402 121.697 191.725 121.697C88.0472 121.697 4 205.745 4 309.422V569H379.449V309.422Z" fill="#FF5F63"/>
<circle cx="262.607" cy="292.268" r="52.7571" fill="white"/>
<circle cx="116.311" cy="292.268" r="52.7571" fill="white"/>
<circle cx="262.283" cy="325.605" r="6.47327" fill="#00192C"/>
<circle cx="115.987" cy="325.605" r="6.47327" fill="#00192C"/>
<circle cx="210.173" cy="399.077" r="15.2122" fill="#00192C"/>
<rect y="224" width="388" height="135" rx="20" fill="#FED546"/>
</svg>
