<svg width="40" height="40" viewBox="0 0 40 40" fill="none" xmlns="http://www.w3.org/2000/svg">
<path d="M7.23379 4.8833L4.88379 7.2333L12.1505 14.5L11.6671 15H5.00046V25H11.6671L20.0005 33.3333V22.35L26.9671 29.3166C25.8838 30.1333 24.6671 30.7833 23.3338 31.1666V34.6C25.5671 34.1 27.6171 33.0666 29.3505 31.6833L32.7671 35.1L35.1171 32.75L7.23379 4.8833ZM16.6671 25.2833L13.0505 21.6666H8.33379V18.3333H13.0505L14.5171 16.8666L16.6671 19.0166V25.2833ZM31.6671 20C31.6671 21.3666 31.4171 22.6833 30.9838 23.9L33.5338 26.45C34.4671 24.5 35.0005 22.3166 35.0005 20C35.0005 12.8666 30.0171 6.89997 23.3338 5.3833V8.81663C28.1505 10.25 31.6671 14.7166 31.6671 20ZM20.0005 6.66663L16.8671 9.79997L20.0005 12.9333V6.66663ZM27.5005 20C27.5005 17.05 25.8005 14.5166 23.3338 13.2833V16.2666L27.4671 20.4C27.4838 20.2666 27.5005 20.1333 27.5005 20Z" fill="white"/>
</svg>
